<svg width="36" height="36" viewBox="0 0 36 36" fill="none" xmlns="http://www.w3.org/2000/svg">
<path d="M22.1144 15.6265C22.8319 14.8698 23.2734 13.8491 23.2734 12.7266C23.2734 10.4003 21.3809 8.50781 19.0547 8.50781C16.7323 8.50781 14.7656 10.3841 14.7656 12.7266C14.7656 13.8146 15.1898 14.8413 15.961 15.6324C15.4523 15.9135 14.9778 16.2643 14.5517 16.6826C13.3294 17.8828 12.6562 19.4744 12.6562 21.1641V22.2188C12.6562 22.8012 13.1285 23.2734 13.7109 23.2734H24.3281C24.9106 23.2734 25.3828 22.8012 25.3828 22.2188V21.1641C25.3828 18.7838 24.0616 16.7067 22.1144 15.6265Z" fill="#124F99"/>
<path d="M32.8359 4.21875H31.7812V3.16406C31.7812 1.4194 30.3619 0 28.6172 0H3.16406C1.4194 0 0 1.4194 0 3.16406V32.8359C0 34.5806 1.4194 36 3.16406 36C3.60176 36 28.1798 36 28.6172 36C30.3619 36 31.7812 34.5806 31.7812 32.8359V31.7812H32.8359C34.5806 31.7812 36 30.3619 36 28.6172C36 27.4475 36 8.50725 36 7.38281C36 5.63815 34.5806 4.21875 32.8359 4.21875ZM6.32812 4.21875H5.27344C4.69097 4.21875 4.21875 4.69097 4.21875 5.27344C4.21875 5.85591 4.69097 6.32812 5.27344 6.32812H6.32812V12.7266H5.27344C4.69097 12.7266 4.21875 13.1988 4.21875 13.7812C4.21875 14.3637 4.69097 14.8359 5.27344 14.8359H6.32812V21.1641H5.27344C4.69097 21.1641 4.21875 21.6363 4.21875 22.2188C4.21875 22.8012 4.69097 23.2734 5.27344 23.2734H6.32812V29.6719H5.27344C4.69097 29.6719 4.21875 30.1441 4.21875 30.7266C4.21875 31.309 4.69097 31.7812 5.27344 31.7812H6.32812V33.8906H3.16406C2.58251 33.8906 2.10938 33.4175 2.10938 32.8359V3.16406C2.10938 2.58251 2.58251 2.10938 3.16406 2.10938H6.32812V4.21875ZM29.6719 32.8359C29.6719 33.4175 29.1987 33.8906 28.6172 33.8906H8.4375V31.7812H9.49219C10.0747 31.7812 10.5469 31.309 10.5469 30.7266C10.5469 30.1441 10.0747 29.6719 9.49219 29.6719H8.4375V23.2734H9.49219C10.0747 23.2734 10.5469 22.8012 10.5469 22.2188C10.5469 21.6363 10.0747 21.1641 9.49219 21.1641H8.4375V14.8359H9.49219C10.0747 14.8359 10.5469 14.3637 10.5469 13.7812C10.5469 13.1988 10.0747 12.7266 9.49219 12.7266H8.4375V6.32812H9.49219C10.0747 6.32812 10.5469 5.85591 10.5469 5.27344C10.5469 4.69097 10.0747 4.21875 9.49219 4.21875H8.4375V2.10938H28.6172C29.1987 2.10938 29.6719 2.58251 29.6719 3.16406V32.8359ZM33.8906 28.6172C33.8906 29.1987 33.4175 29.6719 32.8359 29.6719H31.7812V23.2734H33.8906V28.6172ZM33.8906 12.7266H31.7812V6.32812H32.8359C33.4175 6.32812 33.8906 6.80126 33.8906 7.38281V12.7266Z" fill="#124F99"/>
<path d="M24.3281 25.3828H13.7109C13.1285 25.3828 12.6562 25.855 12.6562 26.4375C12.6562 27.02 13.1285 27.4922 13.7109 27.4922H24.3281C24.9106 27.4922 25.3828 27.02 25.3828 26.4375C25.3828 25.855 24.9106 25.3828 24.3281 25.3828Z" fill="#124F99"/>
</svg>
