<svg width="37" height="35" viewBox="0 0 37 35" fill="none" xmlns="http://www.w3.org/2000/svg">
<path d="M35.9159 29.9623H35.8388V14.91C35.8388 11.7761 33.2691 9.22655 30.1106 9.22655H21.9734C28.6719 2.89784 22.1908 -2.37186 18.4987 1.10834C14.8076 -2.37207 8.32903 2.89999 15.0266 9.22655H6.88936C3.73078 9.22655 1.16109 11.7761 1.16109 14.91V29.9624H1.08398C0.485335 29.9624 0 30.4451 0 31.0391C0 34.1723 2.56969 35 5.72827 35H31.2717C34.4303 35 37 34.1717 37 31.0378C36.9999 30.4439 36.5147 29.9623 35.9159 29.9623ZM3.32905 14.91C3.32905 12.9622 4.92619 11.3776 6.88936 11.3776H30.1106C32.0738 11.3776 33.6709 12.9622 33.6709 14.91V21.966C33.6077 23.5969 31.2564 23.5937 31.1946 21.966V17.2141C31.0157 12.7287 24.5579 12.7355 24.3824 17.2141V19.5181C24.3194 21.1483 21.9683 21.1465 21.906 19.5181V17.2141C21.7143 12.7082 15.2667 12.755 15.0938 17.2141C15.0938 17.8914 14.5384 18.4425 13.8557 18.4425C13.173 18.4425 12.6176 17.8914 12.6176 17.214C12.431 12.7311 5.9916 12.7317 5.8053 17.214V24.1259C5.74229 25.7562 3.39113 25.7543 3.32898 24.1259L3.32905 14.91ZM3.32905 27.2714C5.47787 28.1461 8.00673 26.5021 7.97334 24.1259V17.214C7.97334 16.5366 8.52877 15.9855 9.21146 15.9855C9.89416 15.9855 10.4496 16.5366 10.4496 17.214C10.4496 19.0775 11.9776 20.5935 13.8557 20.5935C15.7338 20.5935 17.2618 19.0775 17.2618 17.214C17.2618 16.5366 17.8172 15.9855 18.4999 15.9855C19.1747 15.9855 19.738 16.5244 19.738 17.214V19.518C19.9162 24.0017 26.3737 23.9985 26.5503 19.518V17.214C26.6126 15.5852 28.9639 15.5842 29.0266 17.214V21.9659C28.9932 24.3424 31.5223 25.986 33.6709 25.1114V29.9623H3.32905V27.2714ZM31.2717 32.849H5.72827C4.14291 32.849 2.79624 33.537 2.33663 32.1133H34.6633C34.2037 33.5369 32.8571 32.849 31.2717 32.849Z" fill="#124F99"/>
</svg>
