<svg width="25" height="25" viewBox="0 0 25 25" fill="none" xmlns="http://www.w3.org/2000/svg">
<g clip-path="url(#clip0)">
<path d="M8.83789 13.2812H11.7676V16.2109H8.83789V13.2812Z" fill="white"/>
<path d="M8.83789 17.6758H11.7676V20.6055H8.83789V17.6758Z" fill="white"/>
<path d="M4.44336 17.6758H7.37305V20.6055H4.44336V17.6758Z" fill="white"/>
<path d="M13.2324 17.6758H16.1621V20.6055H13.2324V17.6758Z" fill="white"/>
<path d="M4.44336 13.2812H7.37305V16.2109H4.44336V13.2812Z" fill="white"/>
<path d="M22.8027 2.92969H20.5126C20.542 3.1641 20.5566 3.41301 20.5566 3.66211C20.5566 5.75676 19.6192 7.32422 18.3594 7.32422C17.9491 7.32422 17.627 7.00188 17.627 6.5918C17.627 6.18153 17.9491 5.85938 18.3594 5.85938C18.5352 5.85938 19.0918 5.08289 19.0918 3.66211C19.0918 3.39851 19.0771 3.14941 19.0332 2.92969H17.6855C17.8173 1.97754 18.2129 1.46484 18.3594 1.46484C18.5059 1.46484 18.9014 2.02637 19.0332 2.88086H20.5126C20.3222 1.26457 19.4727 0 18.3594 0C17.2461 0 16.3965 1.21574 16.2062 2.92969H14.6532C14.6826 3.1641 14.6973 3.41301 14.6973 3.66211C14.6973 5.75676 13.7598 7.32422 12.5 7.32422C12.0897 7.32422 11.7676 7.00188 11.7676 6.5918C11.7676 6.18153 12.0897 5.85938 12.5 5.85938C12.6759 5.85938 13.2324 5.08289 13.2324 3.66211C13.2324 3.39851 13.2177 3.14941 13.1739 2.92969H11.8261C11.9579 1.97754 12.3535 1.46484 12.5 1.46484C12.6465 1.46484 13.0421 1.97754 13.1739 2.88086H14.6532C14.4629 1.21574 13.6133 0 12.5 0C11.3867 0 10.5371 1.21574 10.3468 2.92969H8.79383C8.8232 3.1641 8.83789 3.41301 8.83789 3.66211C8.83789 5.75676 7.90043 7.32422 6.64062 7.32422C6.23035 7.32422 5.9082 7.00188 5.9082 6.5918C5.9082 6.18153 6.23035 5.85938 6.64062 5.85938C6.81648 5.85938 7.37305 5.08289 7.37305 3.66211C7.37305 3.39851 7.35836 3.14941 7.31449 2.92969H5.96676C6.09856 1.97754 6.49414 1.46484 6.64062 1.46484C6.78711 1.46484 7.18269 1.97754 7.31449 2.88086H8.79383C8.60348 1.21574 7.75394 0 6.64062 0C5.52731 0 4.67777 1.21574 4.48742 2.92969H2.19727C0.981331 2.92969 0 3.91102 0 5.12695V8.78906H25V5.12695C25 3.91102 24.0187 2.92969 22.8027 2.92969Z" fill="white"/>
<path d="M13.2324 13.2812H16.1621V16.2109H13.2324V13.2812Z" fill="white"/>
<path d="M0 22.8027C0 24.0185 0.981331 25 2.19727 25H22.8027C24.0187 25 25 24.0185 25 22.8027V10.2539H0V22.8027ZM2.97852 12.5488C2.97852 12.1386 3.30067 11.8164 3.71094 11.8164H21.2891C21.6993 11.8164 22.0215 12.1386 22.0215 12.5488V21.3379C22.0215 21.748 21.6993 22.0703 21.2891 22.0703H3.71094C3.30067 22.0703 2.97852 21.748 2.97852 21.3379V12.5488Z" fill="white"/>
<path d="M17.627 13.2812H20.5566V16.2109H17.627V13.2812Z" fill="white"/>
<path d="M17.627 17.6758H20.5566V20.6055H17.627V17.6758Z" fill="white"/>
</g>
<defs>
<clipPath id="clip0">
<rect width="25" height="25" fill="white"/>
</clipPath>
</defs>
</svg>
