<svg width="26" height="26" viewBox="0 0 26 26" xmlns="http://www.w3.org/2000/svg">
<path d="M25.3016 11.3087L25.2998 11.307L14.6928 0.701416C14.2407 0.249145 13.6396 0 13.0002 0C12.3608 0 11.7597 0.248947 11.3073 0.701218L0.705879 11.3014C0.702308 11.305 0.698737 11.3087 0.695166 11.3123C-0.233274 12.246 -0.231686 13.7609 0.699729 14.6922C1.12526 15.1179 1.68729 15.3645 2.28819 15.3903C2.31259 15.3927 2.33719 15.3939 2.36199 15.3939H2.78475V23.1989C2.78475 24.7434 4.04152 26 5.58653 26H9.73634C10.1569 26 10.4981 25.659 10.4981 25.2383V19.1191C10.4981 18.4144 11.0715 17.8411 11.7763 17.8411H14.224C14.9289 17.8411 15.5022 18.4144 15.5022 19.1191V25.2383C15.5022 25.659 15.8432 26 16.264 26H20.4138C21.9588 26 23.2156 24.7434 23.2156 23.1989V15.3939H23.6076C24.2468 15.3939 24.8479 15.1449 25.3004 14.6926C26.2328 13.7597 26.2332 12.2422 25.3016 11.3087Z" fill="#124F99"/>
</svg>
