<svg width="13" height="15" viewBox="0 0 13 15" fill="none" xmlns="http://www.w3.org/2000/svg">
<path d="M12.125 6.25C12.125 10.625 6.5 14.375 6.5 14.375C6.5 14.375 0.875 10.625 0.875 6.25C0.875 4.75816 1.46763 3.32742 2.52252 2.27252C3.57742 1.21763 5.00816 0.625 6.5 0.625C7.99184 0.625 9.42258 1.21763 10.4775 2.27252C11.5324 3.32742 12.125 4.75816 12.125 6.25Z" stroke="white" stroke-linecap="round" stroke-linejoin="round"/>
<path d="M6.5 8.125C7.53553 8.125 8.375 7.28553 8.375 6.25C8.375 5.21447 7.53553 4.375 6.5 4.375C5.46447 4.375 4.625 5.21447 4.625 6.25C4.625 7.28553 5.46447 8.125 6.5 8.125Z" stroke="white" stroke-linecap="round" stroke-linejoin="round"/>
</svg>
