<svg width="16" height="14" viewBox="0 0 16 14" xmlns="http://www.w3.org/2000/svg">
<path fill-rule="evenodd" clip-rule="evenodd" d="M4.43178 13.4646L11.6073 1.17591L10.7438 0.671669L9.85826 2.18814C9.25839 2.06482 8.63671 2 8 2C4.58527 2 1.60221 3.86562 0.0966517 6.62005C0.0331076 6.73789 0 6.86809 0 7.00013C0 7.13217 0.0331076 7.26237 0.0966517 7.38021C1.0603 9.14291 2.62791 10.5409 4.52634 11.3195L3.56822 12.9604L4.43178 13.4646ZM5.16976 10.2176C3.59915 9.60273 2.2586 8.48249 1.39082 7C2.74749 4.68229 5.25944 3.25 8 3.25C8.40103 3.25 8.79717 3.28067 9.18551 3.3403L8.70803 4.15801C8.47716 4.108 8.23966 4.08265 8 4.08333C7.70559 4.08765 7.41336 4.13149 7.13222 4.21354C7.26227 4.42795 7.33151 4.67003 7.33333 4.91667C7.33333 5.10818 7.2931 5.29781 7.21492 5.47475C7.13675 5.65168 7.02217 5.81244 6.87772 5.94786C6.73327 6.08328 6.56179 6.1907 6.37306 6.26399C6.18433 6.33728 5.98205 6.375 5.77777 6.375C5.51469 6.37329 5.25647 6.30837 5.02777 6.18646C4.84734 6.77312 4.86837 7.39814 5.08788 7.97298C5.24705 8.38979 5.50473 8.7649 5.83895 9.07155L5.16976 10.2176ZM11.4917 4.07799L12.1318 2.98178C13.7339 3.7943 15.0535 5.06522 15.9033 6.61979C15.9669 6.73763 16 6.86783 16 6.99987C16 7.13191 15.9669 7.26211 15.9033 7.37995C14.3978 10.1344 11.4147 12 8 12C7.62905 12 7.2632 11.978 6.90379 11.9352L7.60177 10.7399C7.7339 10.7466 7.86668 10.75 8 10.75C10.7406 10.75 13.2528 9.31771 14.6092 7C13.866 5.7303 12.776 4.72633 11.4917 4.07799ZM9.87875 9.3144C9.3627 9.67956 8.73797 9.88441 8.09189 9.90052L10.6669 5.49057C10.7827 5.67055 10.8779 5.86274 10.9502 6.06413C11.158 6.64278 11.1664 7.26806 10.9741 7.8514C10.7818 8.43474 10.3986 8.94658 9.87875 9.3144Z"/>
</svg>
