<svg width="28" height="40" viewBox="0 0 28 40" fill="none" xmlns="http://www.w3.org/2000/svg">
<path d="M24.8716 6.41489H20.6743V5.61054C20.6743 4.57553 19.8322 3.7335 18.7972 3.7335H18.5654C18.1355 1.60647 16.252 0 14.0002 0C11.7485 0 9.86488 1.60647 9.43483 3.7335H9.20278C8.16776 3.7335 7.32574 4.57553 7.32574 5.61054V6.41489H3.1284C1.40347 6.41489 0 7.81836 0 9.54329V36.5122C0 38.2371 1.40347 39.6406 3.1284 39.6406H24.8716C26.5965 39.6406 28 38.2371 28 36.5122V9.54329C28 7.81822 26.5965 6.41489 24.8716 6.41489ZM14.0002 2.0856C15.0925 2.0856 16.0255 2.7712 16.3978 3.7335H11.6026C11.975 2.7712 12.9079 2.0856 14.0002 2.0856ZM25.9144 36.5122C25.9144 37.0872 25.4467 37.555 24.8716 37.555H3.1284C2.55333 37.555 2.0856 37.0872 2.0856 36.5122V9.54329C2.0856 8.96822 2.55333 8.50049 3.1284 8.50049H7.32574V9.44401C7.32574 10.479 8.16776 11.321 9.20278 11.321H18.7974C19.8324 11.321 20.6744 10.479 20.6744 9.44401V8.50049H24.8717C25.4468 8.50049 25.9145 8.96822 25.9145 9.54329L25.9144 36.5122Z" fill="#124F99"/>
<path d="M15.5757 15.0067H6.95631C6.38027 15.0067 5.91351 15.4735 5.91351 16.0495C5.91351 16.6254 6.38027 17.0923 6.95631 17.0923H15.5757C16.1517 17.0923 16.6185 16.6254 16.6185 16.0495C16.6185 15.4735 16.1516 15.0067 15.5757 15.0067Z" fill="#124F99"/>
<path d="M15.5757 20.3671H6.95631C6.38027 20.3671 5.91351 20.8339 5.91351 21.4099C5.91351 21.986 6.38027 22.4527 6.95631 22.4527H15.5757C16.1517 22.4527 16.6185 21.986 16.6185 21.4099C16.6185 20.834 16.1516 20.3671 15.5757 20.3671Z" fill="#124F99"/>
<path d="M15.5757 25.7281H6.95631C6.38027 25.7281 5.91351 26.1948 5.91351 26.7709C5.91351 27.3469 6.38027 27.8137 6.95631 27.8137H15.5757C16.1517 27.8137 16.6185 27.3469 16.6185 26.7709C16.6185 26.1948 16.1516 25.7281 15.5757 25.7281Z" fill="#124F99"/>
<path d="M15.5757 31.0889H6.95631C6.38027 31.0889 5.91351 31.5557 5.91351 32.1317C5.91351 32.7078 6.38027 33.1745 6.95631 33.1745H15.5757C16.1517 33.1745 16.6185 32.7078 16.6185 32.1317C16.6185 31.5557 16.1516 31.0889 15.5757 31.0889Z" fill="#124F99"/>
<path d="M19.4964 16.7157C19.7771 16.9707 20.1332 17.1083 20.5077 17.1083C20.5392 17.1083 20.5707 17.1072 20.6024 17.1054C21.0112 17.0802 21.3841 16.8946 21.6522 16.5829L23.1011 14.898C23.3515 14.607 23.3184 14.168 23.0273 13.9176C22.7363 13.6673 22.2973 13.7003 22.0469 13.9914L20.598 15.6763C20.5709 15.708 20.5389 15.7161 20.5169 15.7175C20.4956 15.7186 20.4623 15.7146 20.4315 15.6866L19.5193 14.8572C19.2351 14.5989 18.7955 14.6196 18.5373 14.904C18.2789 15.188 18.2998 15.6277 18.584 15.886L19.4964 16.7157Z" fill="#124F99"/>
<path d="M22.0469 19.5572L20.5979 21.242C20.5707 21.2737 20.5387 21.2819 20.5167 21.2833C20.4967 21.2851 20.4625 21.2805 20.4315 21.2521L19.5193 20.4229C19.2349 20.1647 18.7954 20.1858 18.5371 20.4697C18.2789 20.7538 18.2999 21.1934 18.584 21.4519L19.4961 22.281C19.7768 22.5363 20.1329 22.6739 20.5076 22.6739C20.5389 22.6739 20.5703 22.673 20.6018 22.6712C21.0109 22.6458 21.3839 22.4602 21.6521 22.1485L23.1011 20.4639C23.3515 20.1727 23.3184 19.7339 23.0274 19.4834C22.7362 19.2333 22.2976 19.2661 22.0469 19.5572Z" fill="#124F99"/>
<path d="M22.0469 30.1325L20.5979 31.8172C20.5707 31.8488 20.5389 31.8571 20.5169 31.8585C20.4944 31.8596 20.4622 31.8556 20.4315 31.8274L19.5193 30.9981C19.2349 30.7399 18.7954 30.7611 18.5371 31.045C18.2789 31.329 18.2999 31.7687 18.584 32.027L19.4962 32.8561C19.7769 33.1114 20.133 33.249 20.5077 33.249C20.539 33.249 20.5706 33.2481 20.6023 33.2461C21.0112 33.2208 21.3841 33.0353 21.6523 32.7235L23.1012 31.0387C23.3516 30.7477 23.3185 30.3088 23.0274 30.0583C22.7362 29.8085 22.2973 29.8412 22.0469 30.1325Z" fill="#124F99"/>
<path d="M19.1415 28.2671C19.2772 28.4029 19.4552 28.4708 19.633 28.4708C19.8109 28.4708 19.989 28.4029 20.1245 28.2671L20.8125 27.5791L21.5006 28.2672C21.6363 28.4031 21.8143 28.4709 21.9921 28.4709C22.17 28.4709 22.3481 28.4031 22.4836 28.2672C22.7552 27.9958 22.7552 27.5556 22.4836 27.2842L21.7955 26.5961L22.4838 25.908C22.7553 25.6366 22.7553 25.1964 22.4838 24.9251C22.2125 24.6535 21.772 24.6535 21.5008 24.9251L20.8126 25.6131L20.1245 24.9251C19.8533 24.6535 19.4128 24.6535 19.1415 24.9251C18.87 25.1964 18.87 25.6366 19.1415 25.908L19.8295 26.5961L19.1415 27.2841C18.87 27.5555 18.87 27.9957 19.1415 28.2671Z" fill="#124F99"/>
</svg>
