<svg width="23" height="26" viewBox="0 0 23 26" fill="none" xmlns="http://www.w3.org/2000/svg">
<path d="M11.5 13C15.1297 13 18.0714 10.0902 18.0714 6.5C18.0714 2.90977 15.1297 0 11.5 0C7.87031 0 4.92857 2.90977 4.92857 6.5C4.92857 10.0902 7.87031 13 11.5 13ZM16.1 14.625H15.2426C14.1029 15.143 12.8348 15.4375 11.5 15.4375C10.1652 15.4375 8.90223 15.143 7.75737 14.625H6.9C3.09063 14.625 0 17.682 0 21.45V23.5625C0 24.9082 1.10379 26 2.46429 26H20.5357C21.8962 26 23 24.9082 23 23.5625V21.45C23 17.682 19.9094 14.625 16.1 14.625Z" fill="#124F99"/>
</svg>
