<svg width="16" height="10" viewBox="0 0 16 10" xmlns="http://www.w3.org/2000/svg">
<path d="M8 2.08333C7.70559 2.08765 7.41336 2.1315 7.13222 2.21354C7.26227 2.42795 7.33151 2.67003 7.33333 2.91667C7.33333 3.10818 7.2931 3.29781 7.21492 3.47475C7.13675 3.65168 7.02217 3.81245 6.87772 3.94786C6.73327 4.08328 6.56179 4.1907 6.37306 4.26399C6.18433 4.33728 5.98205 4.375 5.77777 4.375C5.51469 4.37329 5.25647 4.30837 5.02777 4.18646C4.84734 4.77312 4.86837 5.39814 5.08788 5.97298C5.3074 6.54782 5.71428 7.04333 6.25088 7.38934C6.78748 7.73534 7.4266 7.91429 8.07771 7.90084C8.72883 7.88739 9.35892 7.68223 9.87875 7.3144C10.3986 6.94658 10.7818 6.43474 10.9741 5.8514C11.1664 5.26806 11.158 4.64278 10.9502 4.06413C10.7424 3.48549 10.3456 2.98281 9.81613 2.62731C9.28665 2.2718 8.65127 2.08149 8 2.08333V2.08333ZM15.9033 4.61979C14.397 1.86432 11.4147 0 8 0C4.58527 0 1.60221 1.86563 0.0966517 4.62005C0.0331076 4.73789 0 4.86809 0 5.00013C0 5.13217 0.0331076 5.26237 0.0966517 5.38021C1.60304 8.13568 4.58527 10 8 10C11.4147 10 14.3978 8.13437 15.9033 5.37995C15.9669 5.26211 16 5.13191 16 4.99987C16 4.86783 15.9669 4.73763 15.9033 4.61979V4.61979ZM8 8.75C5.25972 8.75 2.74749 7.31771 1.39082 5C2.74749 2.68229 5.25944 1.25 8 1.25C10.7406 1.25 13.2525 2.68229 14.6092 5C13.2528 7.31771 10.7406 8.75 8 8.75Z"/>
</svg>
