<svg width="26" height="26" viewBox="0 0 26 26" fill="none" xmlns="http://www.w3.org/2000/svg">
<path d="M15.9715 11.2858C16.4897 10.7393 16.8086 10.0021 16.8086 9.19141C16.8086 7.51136 15.4418 6.14453 13.7617 6.14453C12.0844 6.14453 10.6641 7.49963 10.6641 9.19141C10.6641 9.97725 10.9704 10.7187 11.5274 11.2901C11.16 11.4931 10.8173 11.7464 10.5095 12.0486C9.62675 12.9153 9.14062 14.0648 9.14062 15.2852V16.0469C9.14062 16.4675 9.48167 16.8086 9.90234 16.8086H17.5703C17.991 16.8086 18.332 16.4675 18.332 16.0469V15.2852C18.332 13.5661 17.3779 12.0659 15.9715 11.2858Z" fill="white"/>
<path d="M23.7148 3.04688H22.9531V2.28516C22.9531 1.02512 21.928 0 20.668 0H2.28516C1.02512 0 0 1.02512 0 2.28516V23.7148C0 24.9749 1.02512 26 2.28516 26C2.60127 26 20.3521 26 20.668 26C21.928 26 22.9531 24.9749 22.9531 23.7148V22.9531H23.7148C24.9749 22.9531 26 21.928 26 20.668C26 19.8232 26 6.14412 26 5.33203C26 4.072 24.9749 3.04688 23.7148 3.04688ZM4.57031 3.04688H3.80859C3.38792 3.04688 3.04688 3.38792 3.04688 3.80859C3.04688 4.22927 3.38792 4.57031 3.80859 4.57031H4.57031V9.19141H3.80859C3.38792 9.19141 3.04688 9.53245 3.04688 9.95312C3.04688 10.3738 3.38792 10.7148 3.80859 10.7148H4.57031V15.2852H3.80859C3.38792 15.2852 3.04688 15.6262 3.04688 16.0469C3.04688 16.4675 3.38792 16.8086 3.80859 16.8086H4.57031V21.4297H3.80859C3.38792 21.4297 3.04688 21.7707 3.04688 22.1914C3.04688 22.6121 3.38792 22.9531 3.80859 22.9531H4.57031V24.4766H2.28516C1.86514 24.4766 1.52344 24.1349 1.52344 23.7148V2.28516C1.52344 1.86514 1.86514 1.52344 2.28516 1.52344H4.57031V3.04688ZM21.4297 23.7148C21.4297 24.1349 21.088 24.4766 20.668 24.4766H6.09375V22.9531H6.85547C7.27614 22.9531 7.61719 22.6121 7.61719 22.1914C7.61719 21.7707 7.27614 21.4297 6.85547 21.4297H6.09375V16.8086H6.85547C7.27614 16.8086 7.61719 16.4675 7.61719 16.0469C7.61719 15.6262 7.27614 15.2852 6.85547 15.2852H6.09375V10.7148H6.85547C7.27614 10.7148 7.61719 10.3738 7.61719 9.95312C7.61719 9.53245 7.27614 9.19141 6.85547 9.19141H6.09375V4.57031H6.85547C7.27614 4.57031 7.61719 4.22927 7.61719 3.80859C7.61719 3.38792 7.27614 3.04688 6.85547 3.04688H6.09375V1.52344H20.668C21.088 1.52344 21.4297 1.86514 21.4297 2.28516V23.7148ZM24.4766 20.668C24.4766 21.088 24.1349 21.4297 23.7148 21.4297H22.9531V16.8086H24.4766V20.668ZM24.4766 9.19141H22.9531V4.57031H23.7148C24.1349 4.57031 24.4766 4.91202 24.4766 5.33203V9.19141Z" fill="white"/>
<path d="M17.5703 18.332H9.90234C9.48167 18.332 9.14062 18.6731 9.14062 19.0938C9.14062 19.5144 9.48167 19.8555 9.90234 19.8555H17.5703C17.991 19.8555 18.332 19.5144 18.332 19.0938C18.332 18.6731 17.991 18.332 17.5703 18.332Z" fill="white"/>
</svg>
